<svg xmlns="http://www.w3.org/2000/svg" width="430" height="430" style="width:100%;height:100%;transform:translate3d(0,0,0);content-visibility:visible" viewBox="0 0 430 430"><defs><clipPath id="c"><path d="M0 0h430v430H0z"/></clipPath><clipPath id="d"><path d="M0 0h430v430H0z"/></clipPath><clipPath id="e"><path d="M0 0h430v430H0z"/></clipPath><filter id="a" width="100%" height="100%" x="0%" y="0%" filterUnits="objectBoundingBox"><feComponentTransfer in="SourceGraphic"><feFuncA tableValues="1.0 0.0" type="table"/></feComponentTransfer></filter><path id="b" fill="#FFC738" d="M-13.272 40.847c22.559 7.33 46.789-5.016 54.119-27.575 7.33-22.559-5.016-46.789-27.575-54.119-22.559-7.33-46.789 5.016-54.119 27.575-7.33 22.559 5.016 46.789 27.575 54.119z" style="display:block" transform="translate(232 215.736)"/><mask id="f" mask-type="alpha"><g filter="url(#a)"><path fill="#fff" d="M0 0h430v430H0z" opacity="0"/><use xmlns:ns1="http://www.w3.org/1999/xlink" ns1:href="#b"/></g></mask></defs><g clip-path="url(#c)"><g clip-path="url(#d)" style="display:block"><path fill="#F14B00" d="m41.897 49.792-26.782 4.564c-11.039 1.881-22.333 1.9-33.345-.133-12.39-2.287-24.212-5.985-33.068-11.856-9.935-6.588-10.632-20.879-1.416-28.432 4.066-3.337 8.744-5.859 13.422-7.747 10.107-4.109 14.077-16.352 8.315-25.6-2.661-4.281-4.968-9.066-6.298-14.152-3.015-11.534 5.945-22.681 17.854-22.177 9.892.422 20.755 3.883 31.386 8.749 11.37 5.204 21.549 12.696 30.015 21.899l17.23 18.73" class="secondary" style="display:block" transform="rotate(-71 277.17 29.647)"/><path fill="none" stroke="#121330" stroke-linecap="round" stroke-linejoin="round" stroke-width="7" d="m219.62 258.66-4.404 26.81c-1.816 11.05-5.475 21.734-10.982 31.484-6.196 10.97-13.542 20.945-21.976 27.407-9.464 7.249-23.203 3.255-27.344-7.918-1.831-4.93-2.693-10.175-2.955-15.213-.595-10.894-10.878-18.633-21.498-16.196-4.914 1.122-10.19 1.745-15.432 1.347-11.887-.904-19.51-13.005-15.156-24.101 3.62-9.216 10.429-18.36 18.49-26.828 8.623-9.056 19.02-16.241 30.479-21.25l23.319-10.193m16.349 26.347-19.162 25.429" class="primary" style="display:block"/><path fill="#F14B00" d="m41.897 49.792-26.782 4.564c-11.039 1.881-22.333 1.9-33.345-.133-12.39-2.287-24.212-5.985-33.068-11.856-9.935-6.588-10.632-20.879-1.416-28.432 4.066-3.337 8.744-5.859 13.422-7.747 10.107-4.109 14.077-16.352 8.315-25.6-2.661-4.281-4.968-9.066-6.298-14.152-3.015-11.534 5.945-22.681 17.854-22.177 9.892.422 20.755 3.883 31.386 8.749 11.37 5.204 21.549 12.696 30.015 21.899l17.23 18.73" class="secondary" style="display:block" transform="rotate(-141 180.62 99.863)"/><path fill="none" stroke="#121330" stroke-linecap="round" stroke-linejoin="round" stroke-width="7" d="m256.916 226.076 23.686 13.307c9.762 5.486 18.552 12.579 25.83 21.089 8.19 9.574 15.05 19.888 18.237 30.024 3.575 11.372-4.876 22.917-16.792 22.987-5.26.034-10.482-.95-15.306-2.427-10.44-3.167-21.23 3.85-22.573 14.663-.626 5.001-1.844 10.172-4.011 14.961-4.916 10.861-18.894 13.885-27.832 6-7.422-6.554-13.686-16.08-18.886-26.552-5.56-11.2-8.756-23.428-9.544-35.908l-1.603-25.399m30.35-6.352 17.341 26.704" class="primary" style="display:block"/><g clip-path="url(#e)" style="display:block"><path fill="#F14B00" d="m41.897 49.792-26.782 4.564c-11.039 1.881-22.333 1.9-33.345-.133-12.39-2.287-24.212-5.985-33.068-11.856-9.935-6.588-10.632-20.879-1.416-28.432 4.066-3.337 8.744-5.859 13.422-7.747 10.107-4.109 14.077-16.352 8.315-25.6-2.661-4.281-4.968-9.066-6.298-14.152-3.015-11.534 5.945-22.681 17.854-22.177 9.892.422 20.755 3.883 31.386 8.749 11.37 5.204 21.549 12.696 30.015 21.899l17.23 18.73" class="secondary" style="display:block" transform="translate(134.021 184.287)"/><path fill="#F14B00" d="m41.897 49.792-26.782 4.564c-11.039 1.881-22.333 1.9-33.345-.133-12.39-2.287-24.212-5.985-33.068-11.856-9.935-6.588-10.632-20.879-1.416-28.432 4.066-3.337 8.744-5.859 13.422-7.747 10.107-4.109 14.077-16.352 8.315-25.6-2.661-4.281-4.968-9.066-6.298-14.152-3.015-11.534 5.945-22.681 17.854-22.177 9.892.422 20.755 3.883 31.386 8.749 11.37 5.204 21.549 12.696 30.015 21.899l17.23 18.73" class="secondary" style="display:block" transform="rotate(145 118.937 144.72)"/><path fill="none" stroke="#121330" stroke-linecap="round" stroke-linejoin="round" stroke-width="7" d="m175.918 234.079-26.782 4.564c-11.039 1.881-22.333 1.9-33.345-.133-12.39-2.287-24.212-5.985-33.068-11.856-9.935-6.588-10.632-20.879-1.416-28.432 4.066-3.337 8.744-5.859 13.422-7.747 10.107-4.109 14.077-16.352 8.315-25.6-2.661-4.281-4.968-9.066-6.298-14.152-3.015-11.534 5.945-22.681 17.854-22.177 9.892.422 20.755 3.883 31.386 8.749 11.37 5.204 21.549 12.696 30.015 21.899l17.23 18.73m-19.589 24.037-30.282-9.84m93.133-13.827 19.32-19.1c7.964-7.873 17.205-14.366 27.392-19.017 11.46-5.234 23.266-8.985 33.888-9.256 11.917-.301 20.685 11.005 17.468 22.478-1.417 5.066-3.803 9.815-6.552 14.045-5.922 9.163-2.152 21.469 7.873 25.74 4.635 1.98 9.27 4.576 13.276 7.98 9.085 7.719 8.14 21.989-1.905 28.407-8.345 5.328-19.229 8.724-30.728 10.835-12.299 2.259-24.934 1.96-37.148-.722l-24.857-5.46m2.26-30.926 30.45-9.309" class="primary" style="display:block"/></g><path fill="#F14B00" d="m41.897 49.792-26.782 4.564c-11.039 1.881-22.333 1.9-33.345-.133-12.39-2.287-24.212-5.985-33.068-11.856-9.935-6.588-10.632-20.879-1.416-28.432 4.066-3.337 8.744-5.859 13.422-7.747 10.107-4.109 14.077-16.352 8.315-25.6-2.661-4.281-4.968-9.066-6.298-14.152-3.015-11.534 5.945-22.681 17.854-22.177 9.892.422 20.755 3.883 31.386 8.749 11.37 5.204 21.549 12.696 30.015 21.899l17.23 18.73" class="secondary" style="display:block" transform="rotate(73 23.465 214.152)"/><path fill="none" stroke="#121330" stroke-linecap="round" stroke-linejoin="round" stroke-width="7" d="m186.032 183.725-12.195-24.278c-5.026-10.006-8.346-20.801-9.622-31.927-1.435-12.517-1.355-24.903 1.67-35.089 3.395-11.427 16.858-16.272 26.776-9.667 4.38 2.913 8.16 6.65 11.332 10.57 6.885 8.465 19.754 8.682 26.913.468 3.316-3.797 7.217-7.402 11.692-10.16 10.149-6.256 23.428-.947 26.428 10.59 2.489 9.582 2.355 20.982.81 32.572-1.653 12.394-5.841 24.319-12.167 35.106l-12.874 21.953m-28.714-11.705.557-31.836" class="primary" style="display:block"/><path fill="#FFC638" d="M-13.272 40.847c22.559 7.33 46.789-5.016 54.119-27.575 7.33-22.559-5.016-46.789-27.575-54.119-22.559-7.33-46.789 5.016-54.119 27.575-7.33 22.559 5.016 46.789 27.575 54.119z" class="tertiary" style="display:block" transform="translate(215 215.736)"/><g mask="url(#f)" opacity=".5" style="mix-blend-mode:multiply;display:block"><path fill="#FFC638" d="M201.728 256.583c22.559 7.33 46.789-5.016 54.119-27.575 7.33-22.559-5.016-46.789-27.575-54.119-22.559-7.33-46.789 5.016-54.119 27.575-7.33 22.559 5.016 46.789 27.575 54.119z" class="tertiary" opacity="1"/></g><g fill="none" stroke="#121330" stroke-linecap="round" stroke-linejoin="round" style="display:block"><path stroke-width="7" d="M201.728 256.583c22.559 7.33 46.789-5.016 54.119-27.575 7.33-22.559-5.016-46.789-27.575-54.119-22.559-7.33-46.789 5.016-54.119 27.575-7.33 22.559 5.016 46.789 27.575 54.119z" class="primary"/><path stroke-width="12" d="M223.226 197.128s0 0 0 0m12.159 20.801s0 0 0 0m-23.603.005s0 0 0 0" class="primary"/></g></g></g></svg>